<svg xmlns="http://www.w3.org/2000/svg" width="10" height="9" viewBox="0 0 10 9" fill="none">
<path d="M9.06529 0.0701006C8.90592 0.0757257 8.75967 0.160101 8.67529 0.295101L4.16029 7.2026L1.23529 4.6751C1.10967 4.54479 0.921228 4.49604 0.747791 4.55041C0.575291 4.60385 0.446854 4.7501 0.416854 4.92823C0.386854 5.10729 0.459041 5.28729 0.605291 5.3951L3.95029 8.2901C4.05529 8.37916 4.19404 8.41854 4.32998 8.39885C4.46685 8.37823 4.58779 8.30041 4.66279 8.1851L9.48529 0.820101C9.58842 0.669163 9.59685 0.474163 9.50779 0.314788C9.41873 0.156351 9.24717 0.0616631 9.06529 0.0701006Z" fill="#333333"/>
</svg>