<svg width="163" height="101" viewBox="0 0 163 101" fill="none" xmlns="http://www.w3.org/2000/svg">
<g clip-path="url(#clip0_514_1820)">
<path fill-rule="evenodd" clip-rule="evenodd" d="M4.19531 60.1396L0.015625 81.4706L2.1305 81.947L4.88345 67.6016L10.7753 82.5018L16.6672 67.6016L19.4202 81.947L21.5347 81.4708L17.3844 60.14L10.7758 76.6941L4.19531 60.1396ZM25.0748 79.1108L25.075 79.1112C26.9714 80.9613 29.4132 81.9282 32.1611 81.9282C34.9095 81.9282 37.323 80.9611 39.2188 79.1115C41.2571 77.1452 42.4316 74.2738 42.4316 71.4305C42.4316 68.4722 41.3128 65.7719 39.2175 63.7767C37.2949 61.9292 34.9106 60.9614 32.1611 60.9614C29.4132 60.9614 26.9714 61.9283 25.075 63.7784L25.0748 63.7788C23.0386 65.7721 21.8627 68.5853 21.8627 71.4305C21.8627 74.2751 23.0381 77.117 25.0748 79.1108ZM44.3553 61.3911V81.4984H48.3189C51.7413 81.4984 54.4665 80.489 56.3381 78.7122C58.2116 76.9339 59.206 74.4095 59.206 71.4305C59.206 67.835 57.7441 64.9188 55.1202 63.1503C52.7006 61.5016 50.1388 61.3911 47.1136 61.3911H44.3553ZM69.0262 60.5001L58.6185 81.1244L60.7082 81.7137L64.7945 73.6195H73.0551L77.0594 81.7477L79.1704 81.0894L69.0262 60.5001ZM88.056 77.005L87.9216 76.7838L86.1664 78.1019L86.283 78.2915C87.6967 80.5916 89.9279 81.8995 92.4529 81.8995C96.2724 81.8995 98.7991 79.1951 98.7991 75.9573C98.7991 74.674 98.4254 73.5649 97.6754 72.651C96.9282 71.7407 95.821 71.0398 94.378 70.5432L94.3774 70.5431C93.8667 70.3691 93.3705 70.2228 92.9054 70.0858L92.9052 70.0857C92.6778 70.0188 92.458 69.9539 92.2475 69.8891C91.5984 69.6894 91.0303 69.4876 90.5491 69.2145L90.5479 69.2138C89.9863 68.8994 89.578 68.5241 89.3095 68.0894C89.0416 67.6559 88.9044 67.1501 88.9044 66.5598C88.9044 64.6484 90.5179 63.1333 92.537 63.1333C94.0539 63.1333 95.1763 63.7229 96.5522 65.0448L96.7306 65.2163L98.1579 63.5385L97.9998 63.3798C96.3364 61.7088 94.7655 60.99 92.6491 60.99C89.0545 60.99 86.6673 63.5792 86.6673 66.5312C86.6673 67.9581 87.0766 69.0869 87.8868 69.9758C88.6905 70.8576 89.8701 71.4827 91.3749 71.9473C91.6255 72.026 91.8705 72.101 92.1091 72.1741C93.2809 72.5326 94.3007 72.8447 95.0763 73.333C95.5352 73.6219 95.8956 73.9658 96.143 74.4071C96.3903 74.8483 96.534 75.4034 96.534 76.1292C96.534 78.1477 94.9004 79.7276 92.4809 79.7276C90.6398 79.7276 89.1688 78.8357 88.056 77.005ZM100.854 61.4246V81.7951L103.007 81.465V72.2729H113.552V81.7945L115.733 81.4656V61.0951L113.552 61.424V70.1583H103.007V61.0945L100.854 61.4246ZM120.827 79.1108V79.1112C122.724 80.9613 125.165 81.9282 127.913 81.9282C130.662 81.9282 133.075 80.9611 134.971 79.1115C137.009 77.1452 138.184 74.2738 138.184 71.4305C138.184 68.4722 137.065 65.7719 134.97 63.7767C133.047 61.9291 130.663 60.9614 127.913 60.9614C125.165 60.9614 122.724 61.9283 120.827 63.7784V63.7788C118.79 65.7721 117.615 68.5853 117.615 71.4305C117.615 74.2751 118.79 77.117 120.827 79.1108ZM138.076 61.4402L146.564 82.3101L150.49 72.8221L154.416 82.3101L162.904 61.4402L160.771 61.1076L154.302 77.0222L151.53 70.2554L155.102 61.4613L153.179 61.0076L150.49 67.6759L147.8 61.0076L145.877 61.4611L149.422 70.2554L146.678 77.0196L140.21 61.1076L138.076 61.4402ZM24.0717 71.4305C24.0717 66.6094 27.7478 63.076 32.1611 63.076C36.6005 63.076 40.2226 66.636 40.2226 71.4305C40.2226 76.2515 36.5466 79.7849 32.1331 79.7849C27.7472 79.7849 24.0717 76.3082 24.0717 71.4305ZM46.5082 63.4771H48.5711C51.229 63.4771 53.332 64.2928 54.7687 65.6818C56.2044 67.0699 56.997 69.0517 56.997 71.4305C56.997 73.8245 56.2107 75.8134 54.7788 77.2046C53.3458 78.5966 51.2432 79.4125 48.5711 79.4125H46.5082V63.4771ZM72.0335 71.5049H65.8724L68.9405 65.2072L72.0335 71.5049ZM119.824 71.4305C119.824 66.6094 123.5 63.076 127.913 63.076C132.353 63.076 135.975 66.636 135.975 71.4305C135.975 76.2515 132.299 79.7849 127.885 79.7849C123.499 79.7849 119.824 76.3082 119.824 71.4305Z" fill="#CBA06A"/>
<path d="M135.086 47.4736H131.298L130.987 48.3114H134.238V51.2872C133.432 51.9229 132.542 52.2262 131.595 52.2262C129.319 52.2262 127.411 50.4205 127.411 47.8925C127.411 45.3789 129.319 43.5588 131.609 43.5588C132.626 43.5588 133.559 43.9199 134.379 44.6277L134.93 43.9777C134.011 43.1543 132.881 42.7354 131.609 42.7354C130.083 42.7354 128.754 43.3421 127.807 44.4688C126.987 45.4367 126.535 46.6646 126.535 47.8925C126.535 49.2937 127.115 50.7094 128.118 51.6773C129.051 52.5874 130.252 53.0641 131.609 53.0641C132.966 53.0641 134.153 52.5874 135.086 51.6773V47.4736Z" fill="#CBA06A"/>
<path d="M136.48 52.9487L137.272 52.8476V50.1318C137.272 47.6471 137.993 46.3759 139.618 46.3181L139.943 45.3936C139.872 45.3936 139.816 45.3936 139.745 45.3936C138.685 45.3936 137.851 45.9569 137.258 47.1126V45.5525L136.48 45.6536V52.9487Z" fill="#CBA06A"/>
<path d="M140.004 49.2505C140.004 51.3885 141.615 53.0209 143.735 53.0209C145.855 53.0209 147.452 51.3885 147.452 49.2505C147.452 47.1126 145.855 45.4946 143.735 45.4946C141.615 45.4946 140.004 47.1126 140.004 49.2505ZM140.809 49.2505C140.809 47.6037 142.124 46.2747 143.735 46.2747C145.346 46.2747 146.646 47.6037 146.646 49.2505C146.646 50.8973 145.346 52.2264 143.735 52.2264C142.124 52.2264 140.809 50.8973 140.809 49.2505Z" fill="#CBA06A"/>
<path d="M153.277 51.7206V52.9485L154.068 52.8474V45.5522L153.277 45.6534V50.146C153.277 51.4172 152.245 52.3562 151.157 52.3562C149.899 52.3562 149.291 51.5183 149.291 49.8571V45.5522L148.5 45.6534V50.2616C148.5 52.0673 149.461 53.0352 150.973 53.0352C151.92 53.0352 152.683 52.6018 153.277 51.7206Z" fill="#CBA06A"/>
<path d="M155.484 45.6535V55.4911L156.276 55.39V51.4174C156.968 52.4719 157.986 53.0209 159.187 53.0209C161.307 53.0209 162.904 51.3885 162.904 49.2505C162.904 47.1126 161.307 45.4946 159.187 45.4946C158.028 45.4946 157.011 46.0436 156.276 47.0837V45.5524L155.484 45.6535ZM156.276 49.2505C156.276 47.6037 157.576 46.2747 159.187 46.2747C160.798 46.2747 162.099 47.6037 162.099 49.2505C162.099 50.8973 160.798 52.2264 159.187 52.2264C157.576 52.2264 156.276 50.8973 156.276 49.2505Z" fill="#CBA06A"/>
<path d="M52.3574 100.937L53.2266 100.759V91.4755H53.9219C55.3995 91.4755 56.2108 92.3047 56.2108 93.6373C56.2108 94.9699 55.3995 95.7991 53.9219 95.7991H53.2266L57.051 100.908L57.8477 100.419L54.7911 96.5098C56.2253 96.2877 57.1524 95.1476 57.1524 93.6077C57.1524 91.8161 55.921 90.6167 53.9944 90.6167H52.3574V100.937Z" fill="#CBA06A"/>
<path d="M69.8055 100.019V100.878L70.5733 100.759V95.5176C70.5733 93.948 69.9069 93.1929 68.299 93.1929C67.676 93.1929 66.9952 93.3113 66.2709 93.563L65.9522 94.5255C66.8214 94.1553 67.5457 93.948 68.212 93.948C69.284 93.948 69.7621 94.4367 69.7621 95.4435V96.3764C69.2406 95.8137 68.5452 95.5176 67.8209 95.5176C66.3578 95.5176 65.1699 96.7317 65.1699 98.2272C65.1699 99.7227 66.3433 100.937 67.8209 100.937C68.5887 100.937 69.2406 100.626 69.8055 100.019ZM66.0101 98.2272C66.0101 97.1759 66.7634 96.3171 67.9368 96.3171C69.0378 96.3171 69.791 97.1167 69.791 98.2272C69.791 99.3525 69.0378 100.137 67.9223 100.137C66.7779 100.137 66.0101 99.2785 66.0101 98.2272Z" fill="#CBA06A"/>
<path d="M72.0117 100.878L72.8374 100.759V90.3057L72.0117 90.4241V100.878Z" fill="#CBA06A"/>
<path d="M78.1172 100.759H83.6509L83.8393 99.9006H78.9864V95.9916H82.9266V95.1624H78.9864V91.4607H83.6509L83.4337 90.6167H78.1172V100.759Z" fill="#CBA06A"/>
<path d="M84.041 99.8264C84.635 100.582 85.4462 100.981 86.4602 100.981C87.8944 100.981 88.9229 99.9892 88.9229 98.6714C88.9229 97.6498 88.3 96.9686 87.0831 96.6133C86.0981 96.3319 85.1275 96.2875 85.1275 95.251C85.1275 94.5107 85.6924 93.9628 86.6341 93.9628C87.17 93.9628 87.7495 94.2146 88.3 94.7032L88.807 94.0221C88.1841 93.4594 87.4453 93.1929 86.6485 93.1929C85.1999 93.1929 84.2728 94.1701 84.2728 95.2806C84.2728 96.6133 85.1565 97.0427 86.6196 97.4128C87.5467 97.6498 88.0392 97.9607 88.0392 98.7751C88.0392 99.5747 87.4308 100.152 86.5182 100.152C85.8083 100.152 85.1709 99.8412 84.6494 99.2341L84.041 99.8264Z" fill="#CBA06A"/>
<path d="M93.0775 100.759V99.9449C92.7877 100.004 92.5415 100.034 92.3531 100.034C91.2667 100.034 91.1218 99.3674 91.1218 98.0644V94.185H93.005V93.3854H91.1218V91.1348L90.3106 91.6382V93.3854H89.4994L89.2676 94.185H90.3106V97.9608C90.3106 99.8708 90.6583 100.863 92.3097 100.863C92.5125 100.863 92.7733 100.833 93.0775 100.759Z" fill="#CBA06A"/>
<path d="M97.9227 100.019V100.878L98.6905 100.759V95.5176C98.6905 93.948 98.0241 93.1929 96.4161 93.1929C95.7932 93.1929 95.1124 93.3113 94.3881 93.563L94.0694 94.5255C94.9385 94.1553 95.6629 93.948 96.3292 93.948C97.4012 93.948 97.8793 94.4367 97.8793 95.4435V96.3764C97.3578 95.8137 96.6624 95.5176 95.9381 95.5176C94.475 95.5176 93.2871 96.7317 93.2871 98.2272C93.2871 99.7227 94.4605 100.937 95.9381 100.937C96.7059 100.937 97.3578 100.626 97.9227 100.019ZM94.1273 98.2272C94.1273 97.1759 94.8805 96.3171 96.0539 96.3171C97.1548 96.3171 97.9082 97.1167 97.9082 98.2272C97.9082 99.3525 97.1549 100.137 96.0395 100.137C94.8951 100.137 94.1273 99.2785 94.1273 98.2272Z" fill="#CBA06A"/>
<path d="M103.128 100.759V99.9449C102.839 100.004 102.592 100.034 102.404 100.034C101.317 100.034 101.173 99.3674 101.173 98.0644V94.185H103.056V93.3854H101.173V91.1348L100.361 91.6382V93.3854H99.5501L99.3184 94.185H100.361V97.9608C100.361 99.8708 100.709 100.863 102.36 100.863C102.563 100.863 102.824 100.833 103.128 100.759Z" fill="#CBA06A"/>
<path fill-rule="evenodd" clip-rule="evenodd" d="M110.118 99.8858V98.8197C109.104 99.6341 108.25 100.078 107.25 100.078C106.106 100.078 104.912 99.0297 104.599 98.4199C104.287 97.81 104.287 97.2683 104.287 97.2683H110.56C110.56 94.8005 109.087 93.2227 107.015 93.2227C104.943 93.2227 103.426 94.8662 103.426 97.0725C103.426 99.2491 105.034 100.937 107.25 100.937C108.279 100.937 109.191 100.582 110.118 99.8858ZM107.015 94.037C105.767 94.037 104.624 95.021 104.343 96.4256H109.539C109.3 94.9209 108.262 94.037 107.015 94.037Z" fill="#CBA06A"/>
<path fill-rule="evenodd" clip-rule="evenodd" d="M64.6536 99.8853V98.8192C63.6396 99.6336 62.7849 100.078 61.7853 100.078C60.6409 100.078 59.4468 99.0292 59.1343 98.4194C58.8218 97.8095 58.8218 97.2678 58.8218 97.2678H65.0955C65.0955 94.8 63.6215 93.2222 61.5498 93.2222C59.4779 93.2222 57.9609 94.8657 57.9609 97.072C57.9609 99.2486 59.5689 100.937 61.7853 100.937C62.8138 100.937 63.7265 100.581 64.6536 99.8853ZM61.5498 94.0365C60.3023 94.0365 59.1594 95.0205 58.8776 96.4252H64.0738C63.8355 94.9204 62.7971 94.0365 61.5498 94.0365Z" fill="#CBA06A"/>
<path d="M51.8691 52.4261H111.051V4.15312L87.7904 29.8546L98.0368 40.087L51.8691 0.240723V12.3992L100.098 45.143L51.8691 18.8998V32.0816L101.04 49.3563L51.8691 39.0035V52.4261Z" fill="#CBA06A" stroke="#CBA06A"/>
</g>
<defs>
<clipPath id="clip0_514_1820">
<rect width="163" height="101" fill="white"/>
</clipPath>
</defs>
</svg>
